<svg xmlns="http://www.w3.org/2000/svg" viewBox="0 0 24 24" width="48" height="48" fill="#1DA1F2"><path d="M22.46 6c-.77.35-1.6.58-2.46.69a4.27 4.27 0 0 0 1.88-2.36 8.56 8.56 0 0 1-2.71 1.04A4.25 4.25 0 0 0 12.1 8.9c0 .33.04.66.11.97A12.06 12.06 0 0 1 3.15 5.15a4.24 4.24 0 0 0 1.31 5.67 4.18 4.18 0 0 1-1.92-.53v.05a4.25 4.25 0 0 0 3.41 4.17 4.3 4.3 0 0 1-1.91.07 4.26 4.26 0 0 0 3.98 2.95A8.53 8.53 0 0 1 2 19.54a12.04 12.04 0 0 0 6.53 1.92c7.84 0 12.13-6.49 12.13-12.12 0-.18-.01-.36-.02-.54A8.64 8.64 0 0 0 24 5.5a8.42 8.42 0 0 1-2.54.7z"/></svg>